# xmcd
# 
# Track frame offsets:
#     150
#     16537
#     44162
#     67975
# 
# Disc length: 1206
# 
# Revision: 1
# Processed by: cddbd v1.5.2PL0 Copyright (c) Steve Scherf et al.
# Submitted via: fre:ac v1.0.31
# 
DISCID=2a04b404
DTITLE=Mave - Why Don't You Love Me?
DYEAR=1994
DGENRE=
TTITLE0=Why Don't You Love Me? [Radio Edit]
TTITLE1=Why Don't You Love Me? [Extended Version]
TTITLE2=Why Don't You Love Me? [Piano Mix]
TTITLE3=Why Don't You Love Me? [Club Mix]
EXTD=
EXTT0=
EXTT1=
EXTT2=
EXTT3=
PLAYORDER=
